<?xml version="1.0" encoding="utf-8"?><svg version="1.1" id="Layer_1" xmlns="http://www.w3.org/2000/svg" xmlns:xlink="http://www.w3.org/1999/xlink" x="0px" y="0px" viewBox="0 0 82.07 122.88" style="enable-background:new 0 0 82.07 122.88" xml:space="preserve"><g><path d="M53.9,19.43c-0.29-0.02-0.56-0.09-0.8-0.21c-0.39-0.08-0.8-0.13-1.22-0.14c-2.72-0.11-5.97,1.14-8.99,4.4 c-0.07,0.08-0.15,0.15-0.23,0.22c-0.89,0.75-2.22,0.63-2.97-0.26c-2.59-3.1-5.59-4.32-8.24-4.26c-1.29,0.03-2.5,0.36-3.54,0.93 c-1,0.55-1.83,1.31-2.38,2.21c-0.83,1.37-1.04,3.11-0.28,4.98l1.45,3.57l2.64,6.49c4.26,8.43,1.34,11.18-3.23,15.5 c-0.86,0.81-1.8,1.7-2.74,2.7c-2.8,3-5.14,5.74-7.23,8.82c-2.1,3.1-3.99,6.59-5.91,11.13c-1.99,4.72-3.48,9.05-4.46,13.46 c-0.98,4.37-1.46,8.85-1.46,13.9c0,0.63-0.03,1.53-0.06,2.38c-0.11,3.35-0.19,5.63,3.79,7c1.03,0.36,2.12,0.48,3.24,0.45 c1.16-0.04,2.38-0.25,3.62-0.57c0.72-0.21,1.53-0.03,2.09,0.53c2.46,2.49,4.9,3.86,7.31,4.21c2.35,0.34,4.77-0.27,7.25-1.74 c0.76-0.49,1.79-0.45,2.51,0.17c2.49,2.13,4.88,3.27,7.17,3.36c2.22,0.08,4.48-0.85,6.77-2.85c0.62-0.57,1.55-0.74,2.35-0.34 c3.14,1.53,5.87,2.03,8.24,1.56c2.28-0.45,4.3-1.84,6.09-4.09c0.58-0.82,1.69-1.13,2.63-0.68c2.02,0.98,3.76,1.4,5.22,1.2 c1.3-0.18,2.44-0.9,3.41-2.21c2.21-2.99,1.97-8.54,1.76-13.25c-0.06-1.41-0.12-2.76-0.12-3.79C76.77,85.1,74,77.39,69.97,70.59 c-4.08-6.87-9.47-12.84-15.48-18.37l-0.02-0.02c-0.94-0.84-1.68-1.71-2.25-2.61c-0.59-0.93-1-1.87-1.26-2.83 c-0.37-1.41-0.41-2.81-0.2-4.21c0.19-1.31,0.58-2.61,1.09-3.89c0.02-0.04,0.03-0.08,0.05-0.12l3.64-8.03l1.7-3.74 c0.79-1.74,0.71-3.37,0.03-4.65c-0.45-0.85-1.16-1.57-2.05-2.09C54.81,19.78,54.37,19.58,53.9,19.43L53.9,19.43z M51.91,14.87V2.11 c0-1.17,0.95-2.11,2.11-2.11c1.17,0,2.11,0.95,2.11,2.11v13.67c0.42,0.18,0.82,0.38,1.2,0.61c1.57,0.92,2.83,2.21,3.65,3.75 c1.26,2.38,1.45,5.31,0.08,8.34l-1.7,3.74l-3.62,7.99c-0.39,1-0.69,1.98-0.82,2.92c-0.13,0.88-0.11,1.73,0.1,2.55 c0.14,0.54,0.38,1.08,0.73,1.63c0.37,0.58,0.87,1.16,1.53,1.75c0.02,0.02,0.04,0.04,0.06,0.06c6.28,5.78,11.93,12.05,16.25,19.32 c4.36,7.34,7.34,15.69,8.22,25.58c0.01,0.06,0.01,0.12,0.01,0.18h0.01c0,1.24,0.05,2.4,0.1,3.62c0.24,5.39,0.51,11.75-2.59,15.94 c-1.68,2.28-3.77,3.54-6.23,3.88c-1.88,0.26-3.92-0.06-6.11-0.92c-2.2,2.38-4.73,3.89-7.59,4.46c-2.93,0.58-6.14,0.16-9.65-1.33 c-2.81,2.16-5.7,3.15-8.67,3.04c-2.9-0.11-5.77-1.27-8.62-3.44c-2.92,1.48-5.85,2.05-8.78,1.62c-3.02-0.44-5.97-1.94-8.83-4.58 c-1.15,0.25-2.3,0.41-3.45,0.45c-1.6,0.05-3.18-0.14-4.74-0.68c-6.93-2.39-6.81-5.92-6.63-11.11c0.02-0.61,0.04-1.25,0.04-2.24 c0-5.32,0.52-10.1,1.58-14.81c1.04-4.68,2.61-9.24,4.69-14.18c2.03-4.8,4.05-8.53,6.3-11.86c2.26-3.34,4.71-6.22,7.63-9.33 c1.03-1.1,2.02-2.04,2.94-2.9c3.18-3,5.21-4.91,2.32-10.59c-0.04-0.07-0.07-0.15-0.1-0.22l-2.65-6.52l-1.45-3.57 c-1.31-3.22-0.91-6.3,0.59-8.76c0.94-1.54,2.3-2.82,3.94-3.72c0.43-0.24,0.88-0.44,1.34-0.63V2.11c0-1.17,0.95-2.11,2.11-2.11 c1.17,0,2.11,0.95,2.11,2.11v12.86c3.24-0.05,6.78,1.15,9.91,4.11C44.87,15.99,48.61,14.77,51.91,14.87L51.91,14.87z"/></g></svg>